<svg width="202" height="202" viewBox="0 0 202 202" fill="none" xmlns="http://www.w3.org/2000/svg">
<circle cx="4.80952" cy="4.80952" r="4.80952" fill="#1C78FF" fill-opacity="0.6"/>
<circle cx="4.80952" cy="43.2857" r="4.80952" fill="#1C78FF" fill-opacity="0.6"/>
<circle cx="4.80952" cy="81.7619" r="4.80952" fill="#1C78FF" fill-opacity="0.6"/>
<circle cx="4.80952" cy="120.238" r="4.80952" fill="#1C78FF" fill-opacity="0.6"/>
<circle cx="4.80952" cy="158.714" r="4.80952" fill="#1C78FF" fill-opacity="0.6"/>
<circle cx="4.80952" cy="197.19" r="4.80952" fill="#1C78FF" fill-opacity="0.6"/>
<circle cx="43.2857" cy="4.80952" r="4.80952" fill="#1C78FF" fill-opacity="0.6"/>
<circle cx="43.2857" cy="43.2857" r="4.80952" fill="#1C78FF" fill-opacity="0.6"/>
<circle cx="43.2857" cy="81.7619" r="4.80952" fill="#1C78FF" fill-opacity="0.6"/>
<circle cx="43.2857" cy="120.238" r="4.80952" fill="#1C78FF" fill-opacity="0.6"/>
<circle cx="43.2857" cy="158.714" r="4.80952" fill="#1C78FF" fill-opacity="0.6"/>
<circle cx="43.2857" cy="197.19" r="4.80952" fill="#1C78FF" fill-opacity="0.6"/>
<circle cx="81.7619" cy="4.80952" r="4.80952" fill="#1C78FF" fill-opacity="0.6"/>
<circle cx="81.7619" cy="43.2857" r="4.80952" fill="#1C78FF" fill-opacity="0.6"/>
<circle cx="81.7619" cy="81.7619" r="4.80952" fill="#1C78FF" fill-opacity="0.6"/>
<circle cx="81.7619" cy="120.238" r="4.80952" fill="#1C78FF" fill-opacity="0.6"/>
<circle cx="81.7619" cy="158.714" r="4.80952" fill="#1C78FF" fill-opacity="0.6"/>
<circle cx="81.7619" cy="197.19" r="4.80952" fill="#1C78FF" fill-opacity="0.6"/>
<circle cx="120.238" cy="4.80952" r="4.80952" fill="#1C78FF" fill-opacity="0.6"/>
<circle cx="120.238" cy="43.2857" r="4.80952" fill="#1C78FF" fill-opacity="0.6"/>
<circle cx="120.238" cy="81.7619" r="4.80952" fill="#1C78FF" fill-opacity="0.6"/>
<circle cx="120.238" cy="120.238" r="4.80952" fill="#1C78FF" fill-opacity="0.6"/>
<circle cx="120.238" cy="158.714" r="4.80952" fill="#1C78FF" fill-opacity="0.6"/>
<circle cx="120.238" cy="197.19" r="4.80952" fill="#1C78FF" fill-opacity="0.6"/>
<circle cx="158.714" cy="4.80952" r="4.80952" fill="#1C78FF" fill-opacity="0.6"/>
<circle cx="158.714" cy="43.2857" r="4.80952" fill="#1C78FF" fill-opacity="0.6"/>
<circle cx="158.714" cy="81.7619" r="4.80952" fill="#1C78FF" fill-opacity="0.6"/>
<circle cx="158.714" cy="120.238" r="4.80952" fill="#1C78FF" fill-opacity="0.6"/>
<circle cx="158.714" cy="158.714" r="4.80952" fill="#1C78FF" fill-opacity="0.6"/>
<circle cx="158.714" cy="197.19" r="4.80952" fill="#1C78FF" fill-opacity="0.6"/>
<circle cx="197.191" cy="4.80952" r="4.80952" fill="#1C78FF" fill-opacity="0.6"/>
<circle cx="197.191" cy="43.2857" r="4.80952" fill="#1C78FF" fill-opacity="0.6"/>
<circle cx="197.191" cy="81.7619" r="4.80952" fill="#1C78FF" fill-opacity="0.6"/>
<circle cx="197.191" cy="120.238" r="4.80952" fill="#1C78FF" fill-opacity="0.6"/>
<circle cx="197.191" cy="158.714" r="4.80952" fill="#1C78FF" fill-opacity="0.6"/>
<circle cx="197.191" cy="197.19" r="4.80952" fill="#1C78FF" fill-opacity="0.6"/>
</svg>
