<svg width="250" height="81" viewBox="0 0 150 81" fill="none" xmlns="http://www.w3.org/2000/svg">
<rect width="150" height="81" fill="#F5F5F5"/>
<g clip-path="url(#clip0_0_1)">
<rect width="1440" height="4961" transform="translate(-332 -1113)" fill="white"/>
<rect width="1440" height="519" transform="translate(-332 -296)" fill="white"/>
<rect x="-331" y="-9.5" width="1438" height="100" stroke="#151515"/>
<path d="M44.7707 28.8539C44.7707 31.5261 42.7619 33.6922 40.2838 33.6922C37.8058 33.6922 35.7969 31.5261 35.7969 28.8539C35.7969 26.1818 37.8058 24.0156 40.2838 24.0156C42.7619 24.0156 44.7707 26.1818 44.7707 28.8539Z" fill="#151515"/>
<path d="M37.8643 50.1549C29.7024 50.1549 23.0859 43.0205 23.0859 34.2194V26.5703C31.2478 26.5703 37.8646 33.7049 37.8646 42.506L37.8643 50.1549Z" fill="#151515"/>
<path d="M54.1218 31.6719C45.9601 31.6719 39.3438 38.8065 39.3438 47.6076V55.2567C47.5057 55.2567 54.1218 48.1219 54.1218 39.321V31.6719Z" fill="#151515"/>
<path d="M81.4414 28.7812V47.9675H77.8729V35.4881L73.106 47.9675H70.4042L65.612 35.4881V47.9675H62.043V28.7812H66.0961L71.7551 43.0471L77.414 28.7812H81.4414Z" fill="#151515"/>
<path d="M85.7627 30.922C85.134 30.922 84.6069 30.7112 84.1821 30.2898C83.7743 29.85 83.5703 29.3094 83.5703 28.668C83.5703 28.0267 83.7743 27.4952 84.1821 27.0738C84.6069 26.634 85.134 26.4141 85.7627 26.4141C86.3914 26.4141 86.9097 26.634 87.3175 27.0738C87.7423 27.4952 87.9551 28.0267 87.9551 28.668C87.9551 29.3094 87.7423 29.85 87.3175 30.2898C86.9097 30.7112 86.3914 30.922 85.7627 30.922ZM87.5215 32.7361V47.9642H83.9529V32.7361H87.5215Z" fill="#151515"/>
<path d="M97.853 32.5078C99.5355 32.5078 100.895 33.085 101.932 34.2395C102.968 35.3756 103.487 36.9699 103.487 39.0223V47.9558H99.9177V39.5445C99.9177 38.3351 99.6375 37.4097 99.0766 36.7683C98.5158 36.1087 97.751 35.7788 96.7823 35.7788C95.7967 35.7788 95.0151 36.1087 94.4374 36.7683C93.8765 37.4097 93.5963 38.3351 93.5963 39.5445V47.9558H90.0273V32.7277H93.5963V34.6243C94.0721 33.9646 94.6755 33.4515 95.4061 33.085C96.1536 32.7002 96.9694 32.5078 97.853 32.5078Z" fill="#151515"/>
<path d="M110.02 35.8877V43.2542C110.02 43.7674 110.13 44.143 110.351 44.3812C110.589 44.6011 110.98 44.7111 111.524 44.7111H113.181V47.9548H110.938C107.93 47.9548 106.425 46.3786 106.425 43.2268V35.8877H103.777V32.7267H106.425V28.9609H110.02V32.7267V35.8877Z" fill="#151515"/>
<path d="M126.556 32.7344L117.813 55.1637H114.014L117.073 47.5774L111.414 32.7344H115.416L119.061 43.3719L122.758 32.7344H126.556Z" fill="#151515"/>
</g>
<defs>
<clipPath id="clip0_0_1">
<rect width="1440" height="4961" fill="white" transform="translate(-332 -1113)"/>
</clipPath>
</defs>
</svg>
