<svg width="235" height="81" viewBox="0 0 235 57" fill="none" xmlns="http://www.w3.org/2000/svg">
<path d="M63.6875 46.7379L66.3104 46.031V15.8671L63.6875 15.1601V14.4531H75.4895C79.919 14.4531 83.168 15.2229 85.237 16.7626C87.335 18.2708 88.384 20.2503 88.384 22.701C88.384 24.3979 87.932 25.7647 87.029 26.8013C86.126 27.8383 84.975 28.6081 83.576 29.1109C82.09 29.6765 80.487 29.9748 78.7676 30.0062V30.2422C80.895 30.3364 82.745 30.6818 84.319 31.2788C85.922 31.8444 87.247 32.7245 88.297 33.9181C89.375 35.1122 89.914 36.6364 89.914 38.4898C89.914 41.2866 88.85 43.4859 86.723 45.0886C84.596 46.6594 81.143 47.4449 76.3635 47.4449H63.6875V46.7379ZM75.4895 29.5352C76.4513 29.5352 77.3399 29.2522 78.1556 28.6866C79.0009 28.0895 79.671 27.2727 80.167 26.2361C80.691 25.1676 80.953 23.9893 80.953 22.701C80.953 21.3186 80.691 20.0932 80.167 19.0248C79.671 17.9565 79.0009 17.1239 78.1556 16.5269C77.3399 15.9299 76.4513 15.6314 75.4895 15.6314H73.5226V29.5352H75.4895ZM76.3635 46.2665C78.1702 46.2665 79.642 45.5753 80.779 44.1928C81.915 42.8103 82.483 40.9094 82.483 38.4898C82.483 36.0707 81.915 34.1698 80.779 32.7873C79.642 31.4048 78.1702 30.7132 76.3635 30.7132H73.5226V46.2665H76.3635Z" fill="#151515"/>
<path d="M90.7729 46.7379L93.396 46.031V15.8671L90.7729 15.1601V14.4531H96.4559C99.0779 14.4531 100.39 15.8671 100.39 18.6949V46.031L103.013 46.7379V47.4449H90.7729V46.7379Z" fill="#151515"/>
<path d="M115.032 48.1512C111.419 48.1512 108.578 47.0518 106.509 44.8521C104.469 42.6214 103.449 39.5577 103.449 35.6616C103.449 31.7654 104.469 28.7174 106.509 26.5181C108.578 24.2874 111.419 23.1719 115.032 23.1719C118.646 23.1719 121.472 24.2874 123.512 26.5181C125.581 28.7174 126.616 31.7654 126.616 35.6616C126.616 39.5577 125.581 42.6214 123.512 44.8521C121.472 47.0518 118.646 48.1512 115.032 48.1512ZM115.032 47.2088C116.198 47.2088 117.174 46.3287 117.961 44.5695C118.777 42.8098 119.185 39.8403 119.185 35.6616C119.185 31.4828 118.777 28.5133 117.961 26.7536C117.174 24.9944 116.198 24.1143 115.032 24.1143C113.867 24.1143 112.876 24.9944 112.06 26.7536C111.273 28.5133 110.88 31.4828 110.88 35.6616C110.88 39.8403 111.273 42.8098 112.06 44.5695C112.876 46.3287 113.867 47.2088 115.032 47.2088Z" fill="#151515"/>
<path d="M138.21 48.1512C136.403 48.1512 134.786 47.7273 133.358 46.8787C132.659 46.4705 132.09 46.0304 131.653 45.559C131.187 46.2502 130.677 46.7845 130.124 47.1617C129.861 47.3501 129.57 47.5228 129.249 47.6802H128.156V39.6676H129.905C130.284 40.9873 130.837 42.2128 131.566 43.344C133.11 45.7635 135.034 46.9729 137.336 46.9729C138.56 46.9729 139.477 46.6589 140.089 46.0304C140.73 45.3706 141.051 44.4282 141.051 43.2027C141.051 42.1657 140.614 41.3017 139.74 40.6105C138.895 39.8879 137.554 39.0078 135.718 37.9712C134.145 37.1225 132.862 36.3685 131.872 35.7087C130.91 35.0174 130.08 34.1692 129.38 33.1635C128.71 32.1269 128.375 30.9171 128.375 29.5347C128.375 27.6494 129.118 26.1252 130.604 24.963C132.119 23.7689 134.436 23.1719 137.554 23.1719C139.098 23.1719 140.526 23.6119 141.838 24.4915C142.479 24.9002 143.032 25.3241 143.499 25.7641C143.877 25.1985 144.387 24.6642 145.028 24.1614C145.524 23.8474 145.816 23.6747 145.903 23.6433H146.996V31.6555H145.247C144.81 30.3044 144.271 29.0946 143.63 28.0262C142.173 25.5757 140.439 24.3502 138.428 24.3502C137.642 24.3502 136.971 24.6642 136.418 25.2927C135.864 25.9211 135.587 26.7065 135.587 27.6494C135.587 28.8434 136.053 29.8487 136.986 30.6655C137.919 31.4514 139.332 32.3624 141.226 33.3995C142.77 34.2477 143.994 35.0017 144.897 35.6616C145.83 36.29 146.617 37.0754 147.258 38.0183C147.928 38.9607 148.263 40.0606 148.263 41.3174C148.263 45.8734 144.912 48.1512 138.21 48.1512Z" fill="#151515"/>
<path d="M159.632 48.1512C157.825 48.1512 156.208 47.7273 154.78 46.8787C154.08 46.4705 153.512 46.0304 153.075 45.559C152.609 46.2502 152.099 46.7845 151.545 47.1617C151.283 47.3501 150.991 47.5228 150.671 47.6802H149.578V39.6676H151.327C151.706 40.9873 152.259 42.2128 152.988 43.344C154.532 45.7635 156.455 46.9729 158.757 46.9729C159.981 46.9729 160.899 46.6589 161.511 46.0304C162.152 45.3706 162.473 44.4282 162.473 43.2027C162.473 42.1657 162.036 41.3017 161.161 40.6105C160.316 39.8879 158.976 39.0078 157.14 37.9712C155.566 37.1225 154.284 36.3685 153.293 35.7087C152.332 35.0174 151.501 34.1692 150.802 33.1635C150.132 32.1269 149.797 30.9171 149.797 29.5347C149.797 27.6494 150.54 26.1252 152.026 24.963C153.541 23.7689 155.858 23.1719 158.976 23.1719C160.52 23.1719 161.948 23.6119 163.26 24.4915C163.901 24.9002 164.454 25.3241 164.92 25.7641C165.299 25.1985 165.809 24.6642 166.45 24.1614C166.946 23.8474 167.237 23.6747 167.324 23.6433H168.417V31.6555H166.669C166.232 30.3044 165.693 29.0946 165.052 28.0262C163.594 25.5757 161.861 24.3502 159.85 24.3502C159.063 24.3502 158.393 24.6642 157.84 25.2927C157.286 25.9211 157.009 26.7065 157.009 27.6494C157.009 28.8434 157.475 29.8487 158.408 30.6655C159.34 31.4514 160.754 32.3624 162.648 33.3995C164.192 34.2477 165.416 35.0017 166.319 35.6616C167.252 36.29 168.039 37.0754 168.68 38.0183C169.35 38.9607 169.685 40.0606 169.685 41.3174C169.685 45.8734 166.334 48.1512 159.632 48.1512Z" fill="#151515"/>
<path d="M182.361 48.1512C178.747 48.1512 175.906 47.0518 173.837 44.8521C171.797 42.6214 170.777 39.5577 170.777 35.6616C170.777 31.7654 171.797 28.7174 173.837 26.5181C175.906 24.2874 178.747 23.1719 182.361 23.1719C185.974 23.1719 188.801 24.2874 190.84 26.5181C192.909 28.7174 193.944 31.7654 193.944 35.6616C193.944 39.5577 192.909 42.6214 190.84 44.8521C188.801 47.0518 185.974 48.1512 182.361 48.1512ZM182.361 47.2088C183.526 47.2088 184.503 46.3287 185.289 44.5695C186.105 42.8098 186.513 39.8403 186.513 35.6616C186.513 31.4828 186.105 28.5133 185.289 26.7536C184.503 24.9944 183.526 24.1143 182.361 24.1143C181.195 24.1143 180.204 24.9944 179.389 26.7536C178.602 28.5133 178.208 31.4828 178.208 35.6616C178.208 39.8403 178.602 42.8098 179.389 44.5695C180.204 46.3287 181.195 47.2088 182.361 47.2088Z" fill="#151515"/>
<path d="M195.27 46.7374L197.892 46.0304V25.2927L195.27 24.5857V23.8788H199.203C200.923 23.8788 202.278 24.4758 203.268 25.6699C203.647 26.1409 203.968 26.7222 204.23 27.4135C204.667 26.5338 205.133 25.8269 205.629 25.2927C206.94 23.8788 208.441 23.1719 210.131 23.1719C211.821 23.1719 213.307 23.5805 214.59 24.3973C215.872 25.1828 216.862 26.2669 217.562 27.6494C217.999 26.7379 218.465 25.9996 218.96 25.434C220.301 23.9259 221.802 23.1719 223.462 23.1719C225.007 23.1719 226.391 23.5173 227.615 24.2085C228.868 24.9002 229.83 25.8426 230.5 27.0367C231.199 28.2307 231.549 29.5347 231.549 30.9485V46.0304L234.172 46.7374V47.4443H228.489C225.867 47.4443 224.555 46.0304 224.555 43.2027V30.9485C224.555 28.9062 224.264 27.3821 223.681 26.3768C223.098 25.3398 222.443 24.8212 221.714 24.8212C220.869 24.8212 220.01 25.4497 219.135 26.7065C218.786 27.3036 218.48 27.932 218.217 28.5918V46.0304L220.84 46.7374V47.4443H208.601V46.7374L211.224 46.0304V30.9485C211.224 28.9062 210.932 27.3821 210.35 26.3768C209.767 25.3398 209.111 24.8212 208.382 24.8212C207.537 24.8212 206.678 25.4497 205.804 26.7065C205.454 27.3036 205.148 27.932 204.886 28.5918V46.0304L207.508 46.7374V47.4443H195.27V46.7374Z" fill="#151515"/>
<path fill-rule="evenodd" clip-rule="evenodd" d="M28.1142 56.4531C27.8323 56.5128 27.5399 56.5329 27.2435 56.5085C18.0875 55.7592 9.42121 50.3061 4.48351 41.0847C-0.454286 31.8627 -0.500885 21.0433 3.47571 12.1187C4.05301 10.823 5.30451 10.0439 6.63381 10.1527C10.0459 10.4319 13.3899 11.3642 16.4983 12.9015C18.8438 7.97021 22.314 3.76351 26.5438 0.674812C27.6475 -0.131187 29.0914 -0.131187 30.1952 0.674812C34.3675 3.72151 37.8005 7.85621 40.1443 12.701C43.1349 11.283 46.3337 10.4195 49.5948 10.1527C50.9243 10.0439 52.1756 10.823 52.7528 12.1187C56.7294 21.0433 56.6829 31.8627 51.7453 41.0847C46.8073 50.3061 38.1411 55.7592 28.985 56.5085C28.6886 56.5329 28.3962 56.5128 28.1142 56.4531ZM34.8225 50.8626C40.311 48.85 45.1652 44.7658 48.2884 38.9329C52.4458 31.1684 52.5813 22.0891 49.3764 14.4925C46.745 14.7678 44.1691 15.4935 41.7528 16.6393C42.9314 20.1355 43.5745 23.909 43.5745 27.8449C43.5745 36.8143 40.2345 44.9425 34.8225 50.8626ZM36.6106 14.7023C34.6527 10.649 31.8158 7.16601 28.3695 4.54551C24.8491 7.22211 21.9649 10.7986 20.0035 14.9634C23.1253 17.116 25.8986 19.9477 28.1142 23.3979C30.4208 19.8063 33.3317 16.885 36.6106 14.7023ZM30.3756 27.5719C32.3812 23.8833 35.0822 20.9027 38.1973 18.7132C39.0964 21.5801 39.5834 24.6513 39.5834 27.8449C39.5834 35.2177 36.9876 41.9377 32.7202 46.9996C33.8749 40.6054 33.1764 33.7951 30.3756 27.5719ZM25.8529 27.5719C23.9379 24.049 21.3878 21.1722 18.449 19.0134C17.6091 21.7939 17.1554 24.7625 17.1554 27.8449C17.1554 34.8396 19.4917 41.2469 23.3753 46.2076C22.4151 40.0454 23.1674 33.5391 25.8529 27.5719ZM28.1142 49.1029C29.6127 43.9651 29.6742 38.3607 28.1142 33.0476C26.5543 38.3607 26.6161 43.9651 28.1142 49.1029ZM7.94011 38.9329C11.2052 45.0305 16.3623 49.2176 22.1578 51.1243C16.6036 45.1832 13.1641 36.9469 13.1641 27.8449C13.1641 23.9892 13.7813 20.289 14.9148 16.8529C12.3723 15.5834 9.64371 14.7845 6.85211 14.4925C3.64731 22.0891 3.78271 31.1684 7.94011 38.9329Z" fill="#151515"/>
</svg>
