<svg width="207" height="89" viewBox="0 0 207 89" fill="none" xmlns="http://www.w3.org/2000/svg">
<rect width="207" height="89" fill="#F5F5F5"/>
<g clip-path="url(#clip0_0_1)">
<rect width="1440" height="4961" transform="translate(-863 -1109)" fill="white"/>
<rect width="1440" height="519" transform="translate(-863 -292)" fill="white"/>
<rect x="-862" y="-5.5" width="1438" height="100" stroke="#151515"/>
<path fill-rule="evenodd" clip-rule="evenodd" d="M52.8874 27.786H34.6172V19.4453H60.6381V47.4461H52.8874V27.786Z" fill="#151515"/>
<path fill-rule="evenodd" clip-rule="evenodd" d="M38.6226 44.3881C37.439 43.537 36.0475 43.0828 34.624 43.0828V34.7422C37.5805 34.7422 40.4706 35.6856 42.9288 37.4531C45.387 39.2206 47.3029 41.7328 48.4343 44.6721C49.5658 47.6115 49.8619 50.8457 49.2851 53.9658C48.7083 57.086 47.2847 59.9523 45.194 62.2018C43.1034 64.4517 40.4399 65.9836 37.5402 66.6043C34.6406 67.225 31.635 66.9063 28.9035 65.6888C26.1721 64.4713 23.8375 62.4098 22.195 59.7643C20.5525 57.1189 19.6758 54.0092 19.6758 50.8275H27.4267C27.4267 52.3595 27.8488 53.857 28.6397 55.1304C29.4305 56.4042 30.5546 57.397 31.8697 57.9829C33.1848 58.5692 34.632 58.7229 36.0281 58.4237C37.4242 58.1251 38.7067 57.3875 39.7132 56.304C40.7198 55.221 41.4053 53.8408 41.683 52.3385C41.9607 50.8361 41.8182 49.2789 41.2734 47.8639C40.7287 46.4487 39.8062 45.2391 38.6226 44.3881Z" fill="#151515"/>
<path d="M72.8203 60.3765V25.3828H84.8525C87.4541 25.3828 89.6066 25.8494 91.3099 26.7826C93.0133 27.7157 94.283 28.9988 95.1192 30.6319C95.9554 32.2649 96.3735 34.0979 96.3735 36.1309C96.3735 38.0638 95.9709 39.8468 95.1658 41.4799C94.3602 43.0795 93.1059 44.3793 91.4026 45.3791C89.6992 46.3456 87.5157 46.8289 84.8525 46.8289H78.7666V60.3765H72.8203ZM78.7666 41.6298H84.4805C86.5558 41.6298 88.0424 41.1466 88.9406 40.1801C89.8695 39.1803 90.3341 37.8305 90.3341 36.1309C90.3341 34.3978 89.8695 33.0481 88.9406 32.0816C88.0424 31.0818 86.5558 30.5819 84.4805 30.5819H78.7666V41.6298Z" fill="#151515"/>
<path d="M108.595 60.9874C106.273 60.9874 104.213 60.454 102.417 59.3877C100.62 58.3214 99.2114 56.8214 98.1895 54.8883C97.1675 52.9556 96.6562 50.7228 96.6562 48.19C96.6562 45.6236 97.152 43.3406 98.1429 41.341C99.1648 39.3414 100.559 37.7917 102.324 36.6919C104.12 35.5588 106.226 34.9922 108.642 34.9922C110.903 34.9922 112.9 35.5254 114.635 36.5919C116.369 37.6584 117.716 39.1248 118.676 40.9911C119.668 42.8241 120.163 44.8737 120.163 47.1399C120.163 47.5063 120.147 47.8899 120.117 48.2897C120.117 48.6895 120.101 49.1065 120.07 49.5397H102.556C102.68 51.4723 103.299 52.989 104.414 54.0887C105.56 55.1884 106.939 55.7384 108.549 55.7384C109.757 55.7384 110.763 55.4551 111.568 54.8883C112.405 54.2886 113.024 53.5219 113.427 52.5887H119.466C119.033 54.1555 118.305 55.5882 117.283 56.8882C116.291 58.1544 115.053 59.1544 113.566 59.8877C112.111 60.621 110.454 60.9874 108.595 60.9874ZM108.642 40.1912C107.186 40.1912 105.901 40.6411 104.786 41.541C103.671 42.4075 102.959 43.7406 102.649 45.5402H114.124C114.031 43.9072 113.474 42.6074 112.451 41.641C111.429 40.6745 110.159 40.1912 108.642 40.1912Z" fill="#151515"/>
<path d="M122.844 60.3877V35.5921H128.093L128.558 39.7913C129.27 38.3249 130.292 37.1584 131.624 36.292C132.986 35.4255 134.582 34.9922 136.409 34.9922C139.258 34.9922 141.473 35.9587 143.052 37.8917C144.631 39.8246 145.421 42.6574 145.421 46.3901V60.3877H139.475V46.9901C139.475 44.8571 139.072 43.224 138.267 42.0909C137.462 40.9578 136.207 40.3912 134.504 40.3912C132.832 40.3912 131.454 41.0244 130.37 42.2909C129.317 43.5573 128.79 45.3236 128.79 47.5898V60.3877H122.844Z" fill="#151515"/>
<path d="M159.053 60.3818C156.637 60.3818 154.701 59.7482 153.246 58.482C151.79 57.2154 151.062 54.9659 151.062 51.7332V40.9352H147.113V35.5862H151.062L151.759 28.9375H157.008V35.5862H163.234V40.9352H157.008V51.7833C157.008 52.9831 157.241 53.8161 157.705 54.2827C158.201 54.7159 159.037 54.9325 160.214 54.9325H163.094V60.3818H159.053Z" fill="#151515"/>
<path d="M173.957 60.9874C171.975 60.9874 170.349 60.6539 169.079 59.9874C167.809 59.2875 166.865 58.371 166.245 57.2379C165.626 56.1048 165.316 54.8554 165.316 53.489C165.316 51.1894 166.153 49.3231 167.825 47.8899C169.497 46.4567 172.006 45.7402 175.351 45.7402H181.204V45.1403C181.204 43.4406 180.755 42.1909 179.857 41.391C178.959 40.5912 177.844 40.1912 176.512 40.1912C175.304 40.1912 174.251 40.5078 173.353 41.1411C172.455 41.741 171.898 42.6408 171.681 43.8406H165.874C166.028 42.0409 166.586 40.4745 167.546 39.1415C168.537 37.8083 169.807 36.7919 171.356 36.092C172.904 35.3588 174.638 34.9922 176.559 34.9922C179.842 34.9922 182.428 35.8754 184.317 37.6417C186.206 39.4081 187.151 41.9076 187.151 45.1403V60.3877H182.087L181.529 56.3882C180.848 57.7212 179.888 58.8209 178.649 59.6878C177.441 60.5542 175.878 60.9874 173.957 60.9874ZM175.304 55.9884C177.008 55.9884 178.324 55.3883 179.253 54.1889C180.213 52.989 180.817 51.5057 181.065 49.7396H176.001C174.422 49.7396 173.291 50.0559 172.61 50.6894C171.929 51.2891 171.588 52.0391 171.588 52.9389C171.588 53.9055 171.929 54.6555 172.61 55.1884C173.291 55.7217 174.189 55.9884 175.304 55.9884Z" fill="#151515"/>
</g>
<defs>
<clipPath id="clip0_0_1">
<rect width="1440" height="4961" fill="white" transform="translate(-863 -1109)"/>
</clipPath>
</defs>
</svg>
