<svg width="192" height="81" viewBox="0 0 192 53" fill="none" xmlns="http://www.w3.org/2000/svg">
<path d="M60.1154 32.0243H53.0293L51.8566 35.6742H48.1094L54.5074 16.4922H58.6625L65.061 35.6742H61.2881L60.1154 32.0243ZM59.1471 28.951L56.5725 20.9378L53.9976 28.951H59.1471Z" fill="#151515"/>
<path d="M79.767 20.4609V35.6638H76.1732V33.7432C75.7143 34.4018 75.1114 34.923 74.3634 35.3073C73.6328 35.6734 72.8339 35.8562 71.9676 35.8562C70.8627 35.8562 69.8856 35.6089 69.0361 35.1149C68.1862 34.6028 67.515 33.862 67.0219 32.8922C66.5462 31.9042 66.3086 30.7334 66.3086 29.3798V20.4609H69.8771V28.8309C69.8771 30.0384 70.1573 30.9715 70.7182 31.6302C71.279 32.2703 72.0438 32.5905 73.0125 32.5905C73.9981 32.5905 74.7713 32.2703 75.3322 31.6302C75.893 30.9715 76.1732 30.0384 76.1732 28.8309V20.4609H79.767Z" fill="#151515"/>
<path d="M86.4249 23.6186V30.9733C86.4249 31.4855 86.5349 31.8606 86.7559 32.0983C86.9939 32.3179 87.3849 32.4276 87.9289 32.4276H89.5859V35.6656H87.3429C84.3349 35.6656 82.8309 34.0924 82.8309 30.9456V23.6186H81.1479V20.4627H82.8309V16.7031H86.4249V20.4627H89.5859V23.6186H86.4249Z" fill="#151515"/>
<path d="M97.401 35.9158C96.042 35.9158 94.818 35.5955 93.731 34.955C92.643 34.2968 91.785 33.3728 91.156 32.1834C90.544 30.9944 90.238 29.6222 90.238 28.0672C90.238 26.5122 90.553 25.1399 91.181 23.9509C91.827 22.7617 92.702 21.847 93.807 21.2067C94.912 20.548 96.144 20.2188 97.503 20.2188C98.863 20.2188 100.095 20.548 101.199 21.2067C102.304 21.847 103.17 22.7617 103.8 23.9509C104.445 25.1399 104.768 26.5122 104.768 28.0672C104.768 29.6222 104.437 30.9944 103.774 32.1834C103.128 33.3728 102.244 34.2968 101.123 34.955C100.018 35.5955 98.778 35.9158 97.401 35.9158ZM97.401 32.5676C98.047 32.5676 98.65 32.4029 99.211 32.0736C99.789 31.7261 100.248 31.214 100.587 30.5372C100.928 29.8599 101.097 29.037 101.097 28.0672C101.097 26.6219 100.74 25.5151 100.027 24.7466C99.33 23.96 98.472 23.5667 97.452 23.5667C96.432 23.5667 95.574 23.96 94.878 24.7466C94.198 25.5151 93.858 26.6219 93.858 28.0672C93.858 29.5124 94.189 30.6283 94.852 31.4154C95.532 32.1834 96.381 32.5676 97.401 32.5676Z" fill="#151515"/>
<path d="M123.905 20.2422C125.638 20.2422 127.032 20.8185 128.085 21.971C129.156 23.1053 129.692 24.6968 129.692 26.7458V35.6646H126.123V27.2675C126.123 26.0781 125.842 25.1727 125.282 24.5508C124.721 23.9103 123.956 23.5901 122.987 23.5901C122.018 23.5901 121.245 23.9103 120.668 24.5508C120.107 25.1727 119.827 26.0781 119.827 27.2675V35.6646H116.258V27.2675C116.258 26.0781 115.977 25.1727 115.416 24.5508C114.856 23.9103 114.091 23.5901 113.123 23.5901C112.137 23.5901 111.355 23.9103 110.777 24.5508C110.216 25.1727 109.936 26.0781 109.936 27.2675V35.6646H106.367V20.4617H109.936V22.3003C110.395 21.66 110.981 21.1569 111.695 20.791C112.426 20.4251 113.224 20.2422 114.091 20.2422C115.196 20.2422 116.181 20.4983 117.048 21.0105C117.915 21.5045 118.586 22.218 119.062 23.1511C119.521 22.2729 120.183 21.5685 121.05 21.038C121.934 20.5074 122.885 20.2422 123.905 20.2422Z" fill="#151515"/>
<path d="M131.145 28.0123C131.145 26.4754 131.425 25.1127 131.986 23.9235C132.564 22.7343 133.337 21.8195 134.306 21.1792C135.291 20.5389 136.387 20.2188 137.594 20.2188C138.647 20.2188 139.565 20.4474 140.347 20.9048C141.146 21.3622 141.783 21.9384 142.259 22.6337V20.4657H145.853V35.6686H142.259V33.4458C141.8 34.1594 141.163 34.7541 140.347 35.2295C139.548 35.6872 138.622 35.9158 137.568 35.9158C136.379 35.9158 135.291 35.5865 134.306 34.9278C133.337 34.2691 132.564 33.3451 131.986 32.1562C131.425 30.9486 131.145 29.5673 131.145 28.0123ZM142.259 28.0672C142.259 27.1341 142.089 26.3384 141.749 25.6798C141.409 25.003 140.95 24.4908 140.372 24.1429C139.795 23.7771 139.174 23.5941 138.512 23.5941C137.849 23.5941 137.237 23.768 136.676 24.1157C136.115 24.4631 135.657 24.9753 135.3 25.6521C134.96 26.3107 134.79 27.0978 134.79 28.0123C134.79 28.9273 134.96 29.732 135.3 30.4274C135.657 31.1042 136.115 31.6254 136.676 31.9915C137.254 32.3576 137.866 32.5404 138.512 32.5404C139.174 32.5404 139.795 32.3667 140.372 32.0187C140.95 31.6531 141.409 31.141 141.749 30.4823C142.089 29.805 142.259 29.0003 142.259 28.0672Z" fill="#151515"/>
<path d="M152.472 23.6186V30.9733C152.472 31.4855 152.583 31.8606 152.803 32.0983C153.041 32.3179 153.432 32.4276 153.976 32.4276H155.633V35.6656H153.39C150.382 35.6656 148.878 34.0924 148.878 30.9456V23.6186H147.195V20.4627H148.878V16.7031H152.472V20.4627H155.633V23.6186H152.472Z" fill="#151515"/>
<path d="M158.989 18.6568C158.36 18.6568 157.833 18.4464 157.409 18.0256C157.001 17.5866 156.797 17.0468 156.797 16.4065C156.797 15.7662 157.001 15.2357 157.409 14.8149C157.833 14.3758 158.36 14.1562 158.989 14.1562C159.617 14.1562 160.136 14.3758 160.544 14.8149C160.969 15.2357 161.181 15.7662 161.181 16.4065C161.181 17.0468 160.969 17.5866 160.544 18.0256C160.136 18.4464 159.617 18.6568 158.989 18.6568ZM160.748 20.468V35.6709H157.179V20.468H160.748Z" fill="#151515"/>
<path d="M169.526 35.9158C168.167 35.9158 166.943 35.5955 165.856 34.955C164.768 34.2968 163.91 33.3728 163.281 32.1834C162.669 30.9944 162.363 29.6222 162.363 28.0672C162.363 26.5122 162.678 25.1399 163.306 23.9509C163.952 22.7617 164.827 21.847 165.932 21.2067C167.037 20.548 168.269 20.2188 169.628 20.2188C170.988 20.2188 172.22 20.548 173.324 21.2067C174.429 21.847 175.296 22.7617 175.925 23.9509C176.57 25.1399 176.893 26.5122 176.893 28.0672C176.893 29.6222 176.562 30.9944 175.899 32.1834C175.253 33.3728 174.37 34.2968 173.248 34.955C172.143 35.5955 170.903 35.9158 169.526 35.9158ZM169.526 32.5676C170.172 32.5676 170.775 32.4029 171.336 32.0736C171.914 31.7261 172.373 31.214 172.712 30.5372C173.053 29.8599 173.222 29.037 173.222 28.0672C173.222 26.6219 172.865 25.5151 172.152 24.7466C171.455 23.96 170.597 23.5667 169.577 23.5667C168.558 23.5667 167.699 23.96 167.003 24.7466C166.323 25.5151 165.983 26.6219 165.983 28.0672C165.983 29.5124 166.314 30.6283 166.977 31.4154C167.657 32.1834 168.507 32.5676 169.526 32.5676Z" fill="#151515"/>
<path d="M186.314 20.2422C187.996 20.2422 189.356 20.8185 190.393 21.971C191.429 23.1053 191.948 24.6968 191.948 26.7458V35.6646H188.379V27.2675C188.379 26.06 188.098 25.1359 187.538 24.4959C186.977 23.8371 186.212 23.5078 185.244 23.5078C184.258 23.5078 183.476 23.8371 182.898 24.4959C182.337 25.1359 182.057 26.06 182.057 27.2675V35.6646H178.488V20.4617H182.057V22.3552C182.533 21.6966 183.136 21.1844 183.867 20.8185C184.615 20.4343 185.43 20.2422 186.314 20.2422Z" fill="#151515"/>
<path d="M18.8714 20.0698V15.4477C13.6354 15.6416 9.44614 20.2723 9.44614 25.9562V26.6921H0.273438V25.9562C0.273438 14.8183 8.56894 5.76611 18.8714 5.56981V0.570312L34.592 10.504L18.8714 20.0698Z" fill="#151515"/>
<path d="M26.9303 25.9531V26.6891C26.9303 32.3732 22.7415 37.0034 17.5057 37.1977V32.5761L1.78516 42.1415L17.5057 52.0754V47.0758C27.8077 46.8791 36.1033 37.8273 36.1033 26.6891V25.9531H26.9303Z" fill="#151515"/>
</svg>
