<svg width="205" height="85" viewBox="0 0 205 85" fill="none" xmlns="http://www.w3.org/2000/svg">
<rect width="205" height="85" fill="#F5F5F5"/>
<g clip-path="url(#clip0_0_1)">
<rect width="1440" height="4961" transform="translate(-570 -1111)" fill="white"/>
<rect width="1440" height="519" transform="translate(-570 -294)" fill="white"/>
<rect x="-569" y="-7.5" width="1438" height="100" stroke="#151515"/>
<path d="M23.4727 47.2882L34.722 41.8828L41.197 45.9366L42.5051 59.2359L34.5259 59.1651L35.7031 49.9191L34.3296 49.0658L27.593 54.7556L23.4727 47.2882Z" fill="#151515"/>
<path d="M41.918 45.3613L51.8595 53.2554L55.7836 45.6458L47.8041 42.1609V40.4541L55.7836 36.8981L51.8595 29.3594L41.918 37.2537V45.3613Z" fill="#151515"/>
<path d="M41.197 36.6275L42.5051 23.3281L34.5259 23.4704L35.7031 32.7159L34.3296 33.5694L27.5277 27.8798L23.4727 35.2763L34.722 40.6814L41.197 36.6275Z" fill="#151515"/>
<path d="M82.4049 39.6846V52.1445H86.6993V36.2656H80.4453V39.6846H82.4049Z" fill="#151515"/>
<path d="M82.2744 34.0398C82.6681 34.484 83.2675 34.7061 84.0727 34.7061C84.8783 34.7061 85.4684 34.484 85.8439 34.0398C86.238 33.576 86.4344 32.9965 86.4344 32.3012C86.4344 31.5864 86.238 31.0069 85.8439 30.5627C85.4684 30.0991 84.8783 29.8672 84.0727 29.8672C83.2675 29.8672 82.6681 30.0991 82.2744 30.5627C81.8989 31.0069 81.7109 31.5864 81.7109 32.3012C81.7109 32.9965 81.8989 33.576 82.2744 34.0398Z" fill="#151515"/>
<path d="M67.4542 51.8015C68.6708 52.4002 70.1649 52.6998 71.9361 52.6998C73.6004 52.6998 75.0316 52.4194 76.2308 51.8594C77.4297 51.2994 78.351 50.5168 78.9951 49.5122C79.6575 48.4884 79.9883 47.3005 79.9883 45.9483C79.9883 44.6348 79.6757 43.5241 79.0492 42.6161C78.4405 41.6889 77.5911 40.9645 76.4991 40.4431C75.4075 39.9021 74.1462 39.564 72.7146 39.4289L71.2116 39.2841C70.3169 39.2066 69.6728 38.946 69.2791 38.5016C68.8854 38.0574 68.6885 37.5357 68.6885 36.937C68.6885 36.4733 68.7962 36.0484 69.0104 35.6621C69.2254 35.2564 69.5473 34.9377 69.9769 34.7058C70.4242 34.4741 70.97 34.3581 71.6142 34.3581C72.2939 34.3581 72.8578 34.4932 73.3052 34.7639C73.4036 34.821 73.4971 34.8821 73.5849 34.947L73.6062 34.9631C73.639 34.9876 73.6714 35.013 73.7028 35.0387C73.9746 35.2629 74.191 35.5286 74.3519 35.8359C74.5842 36.261 74.7013 36.7341 74.7013 37.2558H78.9951C78.9951 35.8648 78.6999 34.6575 78.1098 33.6338C77.5192 32.5907 76.6693 31.7891 75.56 31.2286C74.4681 30.6491 73.1531 30.3594 71.6142 30.3594C70.1467 30.3594 68.8765 30.63 67.8027 31.1708C66.7293 31.6925 65.8883 32.4458 65.28 33.4308C64.689 34.416 64.3938 35.5849 64.3938 36.937C64.3938 38.8107 64.9759 40.3173 66.1388 41.4572C67.3017 42.5969 68.8588 43.2537 70.8091 43.4275L72.2854 43.5724C73.4838 43.6883 74.3519 43.9491 74.8888 44.3546C75.4253 44.7409 75.6939 45.2722 75.6939 45.9483C75.6939 46.259 75.6469 46.5504 75.5525 46.8227C75.4825 47.0248 75.3867 47.2163 75.2648 47.3972C74.9779 47.8026 74.5576 48.1213 74.003 48.3535C73.4484 48.5851 72.7594 48.701 71.9361 48.701C71.0237 48.701 70.281 48.566 69.7087 48.2951C69.1359 48.0055 68.7067 47.6288 68.4198 47.1655C68.1516 46.7016 68.0177 46.1995 68.0177 45.6585H63.75C63.75 47.0301 64.063 48.2472 64.689 49.3093C65.3155 50.3527 66.2372 51.1836 67.4542 51.8015Z" fill="#151515"/>
<path d="M96.2829 52.3462C94.7976 52.3462 93.5988 52.1533 92.6864 51.7666C91.7735 51.3612 91.1027 50.6945 90.6731 49.7674C90.2617 48.8207 90.056 47.5461 90.056 45.9426V39.6549H87.8281V36.2649H90.056V31.9766H94.055V36.2649H98.3498V39.6549H94.055V46.1167C94.055 46.87 94.2341 47.4494 94.5919 47.8548C94.9674 48.2416 95.4955 48.4344 96.1756 48.4344H98.3498V52.3462H96.2829Z" fill="#151515"/>
<path fill-rule="evenodd" clip-rule="evenodd" d="M103.521 52.011C104.487 52.4743 105.596 52.7065 106.849 52.7065C108.083 52.7065 109.175 52.4743 110.123 52.011C111.072 51.5473 111.859 50.9002 112.485 50.0698C113.112 49.2389 113.532 48.2922 113.747 47.2301H109.801C109.622 47.713 109.282 48.1184 108.781 48.4467C108.28 48.7751 107.636 48.9397 106.849 48.9397C106.361 48.9397 105.925 48.877 105.541 48.7526C105.249 48.6578 104.987 48.5272 104.755 48.3601C104.218 47.9739 103.825 47.4326 103.574 46.7374C103.505 46.5394 103.445 46.3322 103.395 46.1164C103.344 45.8978 103.303 45.6703 103.272 45.4335H114.015V43.8688C114.015 42.42 113.729 41.0871 113.156 39.8702C112.584 38.6337 111.751 37.6389 110.66 36.8856C109.587 36.1129 108.262 35.7266 106.687 35.7266C105.489 35.7266 104.415 35.9585 103.466 36.422C102.537 36.8663 101.758 37.4747 101.132 38.2474C100.506 39.0201 100.023 39.8992 99.682 40.8844C99.3602 41.85 99.1992 42.8642 99.1992 43.9266V44.5061C99.1992 45.5301 99.3602 46.5345 99.682 47.5197C100.023 48.4855 100.506 49.3643 101.132 50.1564C101.776 50.9294 102.572 51.5473 103.521 52.011ZM103.346 42.5683C103.358 42.507 103.37 42.4466 103.384 42.3871C103.421 42.2233 103.464 42.0663 103.513 41.9163C103.541 41.8309 103.57 41.7476 103.601 41.6666C103.87 40.9518 104.263 40.411 104.782 40.044C104.976 39.9068 105.186 39.7953 105.412 39.7095C105.791 39.5655 106.217 39.4934 106.687 39.4934C107.422 39.4934 108.029 39.677 108.513 40.044C109.014 40.3917 109.39 40.9035 109.64 41.5796C109.661 41.6342 109.68 41.6897 109.698 41.746C109.728 41.8355 109.755 41.9275 109.781 42.0217C109.819 42.1619 109.852 42.3071 109.881 42.4571C109.903 42.5676 109.921 42.6808 109.937 42.7967H103.305C103.317 42.7193 103.331 42.6432 103.346 42.5683Z" fill="#151515"/>
<path d="M115.785 52.1448V36.2659H119.194V40.2652C119.24 40.0274 119.293 39.7993 119.352 39.5804C119.402 39.3961 119.457 39.2184 119.516 39.0476C119.892 37.9658 120.455 37.1546 121.207 36.6136C121.958 36.0534 122.88 35.7734 123.972 35.7734H124.159C125.269 35.7734 126.19 36.0534 126.924 36.6136C127.675 37.1546 128.239 37.9658 128.615 39.0476L128.645 39.1292L128.67 39.2039C128.687 39.1512 128.704 39.0991 128.722 39.0476C129.116 37.9658 129.689 37.1546 130.44 36.6136C131.192 36.0534 132.113 35.7734 133.205 35.7734H133.393C134.502 35.7734 135.432 36.0534 136.184 36.6136C136.954 37.1546 137.535 37.9658 137.928 39.0476C138.322 40.1294 138.519 41.4816 138.519 43.1042V52.1448H134.225V42.8434C134.225 41.9741 134.01 41.269 133.58 40.7283C133.169 40.1872 132.578 39.9169 131.809 39.9169C131.04 39.9169 130.431 40.197 129.984 40.7572C129.537 41.298 129.313 42.0224 129.313 42.9304V52.1448H124.991V42.8434C124.991 41.9741 124.777 41.269 124.347 40.7283C123.936 40.1872 123.354 39.9169 122.603 39.9169C121.815 39.9169 121.198 40.197 120.751 40.7572C120.303 41.298 120.079 42.0224 120.079 42.9304V52.1448H115.785Z" fill="#151515"/>
<path fill-rule="evenodd" clip-rule="evenodd" d="M149.996 49.0799V52.1397H153.404V42.4037C153.404 40.9355 153.136 39.738 152.599 38.8106C152.062 37.8641 151.275 37.159 150.237 36.6955C149.218 36.2319 147.956 36 146.453 36C146.127 36 145.787 36.0037 145.432 36.0114C145.223 36.0161 145.008 36.0219 144.789 36.029C144.198 36.0483 143.625 36.0773 143.071 36.116L142.647 36.1467C142.429 36.1631 142.225 36.1792 142.033 36.1955C141.888 36.2076 141.751 36.2198 141.622 36.2319V40.1437C142.176 40.1049 142.793 40.0662 143.474 40.0277C143.664 40.017 143.852 40.007 144.039 39.9976C144.31 39.9841 144.576 39.9724 144.84 39.9622C145.048 39.954 145.255 39.9467 145.46 39.9407C146.104 39.9213 146.623 39.9118 147.016 39.9118C147.804 39.9118 148.376 40.1145 148.734 40.5202C149.092 40.9259 149.271 41.5344 149.271 42.3458V42.4037H146.614C145.308 42.4037 144.154 42.5872 143.151 42.9543C142.149 43.3019 141.371 43.8524 140.817 44.6058C140.261 45.34 139.984 46.2865 139.984 47.4454C139.984 48.508 140.208 49.4255 140.655 50.1985C141.103 50.9513 141.72 51.5309 142.507 51.9363C143.313 52.3422 144.243 52.5451 145.298 52.5451C146.319 52.5451 147.177 52.3422 147.876 51.9363C148.591 51.5309 149.146 50.9513 149.54 50.1985C149.609 50.0711 149.673 49.9395 149.734 49.8026C149.819 49.6093 149.895 49.4059 149.962 49.1924L149.996 49.0799ZM149.271 46.2575V44.9826H146.587C145.835 44.9826 145.254 45.1853 144.843 45.591C144.449 45.9774 144.252 46.5086 144.252 47.1846C144.252 47.5029 144.301 47.792 144.399 48.0528C144.498 48.3141 144.645 48.5463 144.843 48.7492C145.254 49.1359 145.835 49.3288 146.587 49.3288C146.73 49.3288 146.868 49.3211 147.002 49.3063C147.111 49.2939 147.217 49.2762 147.319 49.2537C147.516 49.2106 147.702 49.1484 147.876 49.068C148.269 48.8751 148.591 48.5563 148.841 48.1117C149.092 47.6675 149.235 47.0491 149.271 46.2575Z" fill="#151515"/>
<path d="M155.969 52.1441V36.2652H159.378V41.5063C159.541 40.0102 159.953 38.8038 160.612 37.8879C161.507 36.671 162.795 36.0625 164.478 36.0625H165.041V40.061H163.967C162.787 40.061 161.874 40.4087 161.23 41.1041C160.585 41.7802 160.263 42.7655 160.263 44.0596V52.1441H155.969Z" fill="#151515"/>
<path d="M170.486 44.7266H171.908L176.552 52.1446H181.383L175.495 43.0345L180.336 36.2657H175.827L170.486 43.8158V30.9922H166.191V52.1446H170.486V44.7266Z" fill="#151515"/>
</g>
<defs>
<clipPath id="clip0_0_1">
<rect width="1440" height="4961" fill="white" transform="translate(-570 -1111)"/>
</clipPath>
</defs>
</svg>
